<svg width="307" height="307" xmlns="http://www.w3.org/2000/svg" xmlns:xlink="http://www.w3.org/1999/xlink" xml:space="preserve" overflow="hidden"><g transform="translate(-111 -20)"><path d="M271.695 81.0285C300.485 90.4705 325.882 107.326 345.772 129.283 349.048 126.349 352.934 124.629 357.115 124.629 358.343 124.629 359.543 124.807 360.709 125.089 368.073 104.539 370.689 82.4006 367.325 59.8909 367.308 59.7517 367.268 59.6203 367.249 59.4811 353.811 47.3682 338.224 37.6053 321.124 30.8106 302.866 44.3651 286.088 61.2514 271.695 81.0285Z" fill="#28E1BF"/><path d="M202.083 73.279C207.346 72.7843 212.657 72.4402 218.053 72.4402 231.727 72.4402 245.011 74.0636 257.758 77.0781 272.491 57.0266 289.694 39.9781 308.385 26.4004 294.483 22.2494 279.753 20 264.498 20 246.723 20 229.667 23.0572 213.79 28.6151 205.26 40.1637 198.21 52.8486 192.756 66.3528 196.78 67.7558 200.065 70.1482 202.083 73.279Z" fill="#28E1BF"/><path d="M185.026 100.094C184.307 100.264 183.592 100.404 182.881 100.519 181.173 110.205 180.23 120.153 180.23 130.33 180.23 159.638 187.681 187.169 200.66 211.282 203.458 210.919 206.365 210.919 209.302 211.244 210.864 180.969 218.408 149.605 232.658 119.311 237.223 109.602 242.332 100.373 247.875 91.6029 235.542 88.793 222.702 87.3089 209.511 87.3089 207.149 87.3089 204.819 87.4442 202.48 87.5485 199.539 93.2879 193.162 98.1578 185.026 100.094Z" fill="#28E1BF"/><path d="M261.924 95.5027C256.606 104.006 251.682 112.934 247.272 122.314 232.77 153.141 225.238 185.066 223.873 215.831 229.497 218.888 234.027 223.121 237.207 227.948 279.127 219.02 314.43 196.383 337.886 166.332 336.684 162.622 336 158.514 336 154.177 336 150.664 336.465 147.305 337.263 144.182 317.081 121.897 291.236 104.871 261.924 95.5027Z" fill="#28E1BF"/><path d="M177.451 227.747C179.267 223.449 182.189 219.909 185.807 217.184 172.898 193.109 165.523 165.621 165.523 136.39 165.523 123.775 167.031 111.531 169.64 99.6998 166.211 98.5944 163.289 96.7855 161.179 94.4164 148.433 98.1422 136.273 103.236 124.929 109.629 116.013 129.081 111 150.702 111 173.502 111 186.604 112.65 199.316 115.738 211.452 133.989 221.35 154.57 227.983 176.423 230.688 176.705 229.699 177.041 228.717 177.451 227.747Z" fill="#28E1BF"/><path d="M357.115 183.717C354.08 183.717 351.197 182.809 348.592 181.193 324.293 212.94 286.869 236.64 242.355 244.93 242.286 248.119 241.671 251.3 240.384 254.351 239.747 255.853 238.947 257.245 238.062 258.57 267.687 284.829 306.422 300.999 348.971 301.648 361.115 293.629 372.044 283.928 381.436 272.882 381.77 268.56 382.002 264.21 382.002 259.8 382.002 231.914 375.246 205.655 363.481 182.353 361.47 183.234 359.332 183.717 357.115 183.717Z" fill="#28E1BF"/><path d="M227.723 268.381C231.982 289.362 239.449 308.957 249.869 326.285 254.689 326.737 259.563 327 264.502 327 291.541 327 316.927 319.985 338.991 307.714 338.292 307.72 337.608 307.78 336.913 307.78 295.391 307.775 257.371 292.954 227.723 268.381Z" fill="#28E1BF"/><path d="M197.529 268.006C186.696 263.429 179.128 254.706 176.481 245.178 155.865 241.446 136.571 234.179 119.538 223.987 137.375 275.203 181.563 314.056 235.866 324.307 226.08 308.306 218.887 290.303 214.4 271.058 208.916 271.326 203.134 270.374 197.529 268.006Z" fill="#28E1BF"/><path d="M176.856 65.7807C178.297 65.4367 179.731 65.2125 181.146 65.0735 186.112 54.2785 192.122 44.0673 199.118 34.6096 171.302 47.7274 148.073 68.9461 132.459 95.2358 140.505 90.6249 148.974 86.6826 157.763 83.3935 158.841 75.59 166.405 68.2698 176.856 65.7807Z" fill="#28E1BF"/><path d="M418 173.502C418 132.479 401.876 95.2435 375.658 67.7054 376.235 70.407 376.741 73.1395 377.156 75.9069 380.151 95.9739 378.388 115.751 372.757 134.373 376.147 139.614 378.233 146.547 378.233 154.177 378.233 160.712 376.7 166.734 374.127 171.627 384.607 193.882 390.534 218.703 390.534 244.934 390.534 250.818 390.208 256.618 389.631 262.355 407.468 237.27 418 206.625 418 173.502Z" fill="#28E1BF"/><path d="M202.97 255.114C212.032 258.945 222.038 255.758 225.318 247.998 228.599 240.237 223.912 230.841 214.85 227.01 205.788 223.179 195.782 226.365 192.502 234.125 189.221 241.886 193.908 251.283 202.97 255.114Z" fill="#28E1BF"/><path d="M357.115 166.692C362.054 166.692 366.058 161.087 366.058 154.173 366.058 147.259 362.054 141.654 357.115 141.654 352.175 141.654 348.171 147.259 348.171 154.173 348.171 161.087 352.175 166.692 357.115 166.692Z" fill="#28E1BF"/><path d="M182.676 90.2346C188.07 88.9485 191.664 84.6373 190.703 80.6051 189.741 76.5729 184.589 74.3467 179.195 75.6328 173.801 76.9189 170.207 81.2301 171.168 85.2623 172.13 89.2945 177.282 91.5207 182.676 90.2346Z" fill="#28E1BF"/></g></svg>