<svg width="14" height="14" xmlns="http://www.w3.org/2000/svg" xmlns:xlink="http://www.w3.org/1999/xlink" xml:space="preserve" overflow="hidden"><g transform="translate(-630 -175)"><path d="M634.667 185.459 633.5 185.459C632.855 185.459 632.333 184.927 632.333 184.271L632.333 177.938C632.333 177.281 632.855 176.75 633.5 176.75L638.167 176.75C638.811 176.75 639.333 177.281 639.333 177.938L639.333 179.026M635.833 179.125 640.5 179.125C641.145 179.125 641.667 179.656 641.667 180.312L641.667 186.646C641.667 187.303 641.145 187.833 640.5 187.833L635.833 187.833C635.189 187.833 634.667 187.302 634.667 186.646L634.667 180.312C634.667 179.657 635.189 179.125 635.833 179.125Z" stroke="#28E1BF" stroke-width="0.583307" fill="#FFFFFF"/></g></svg>