<svg width="200" height="200" xmlns="http://www.w3.org/2000/svg" xmlns:xlink="http://www.w3.org/1999/xlink" xml:space="preserve" overflow="hidden"><g transform="translate(-46 -407)"><path d="M148 432C149.657 432 151 433.343 151 435L151 459C151 460.657 149.657 462 148 462L144 462C142.343 462 141 460.657 141 459L141 435C141 433.343 142.343 432 144 432Z" fill="#28E1BF"/><path d="M178.332 439.298C179.846 439.971 180.527 441.745 179.853 443.258L170.091 465.184C169.417 466.697 167.644 467.378 166.13 466.704L162.476 465.077C160.962 464.403 160.282 462.63 160.956 461.116L170.717 439.191C171.391 437.677 173.165 436.997 174.678 437.671Z" fill="#28E1BF"/><path d="M203.074 458.301C204.183 459.533 204.083 461.43 202.852 462.538L185.017 478.597C183.785 479.706 181.888 479.607 180.78 478.375L178.103 475.403C176.995 474.172 177.094 472.275 178.325 471.166L196.161 455.107C197.392 453.998 199.289 454.098 200.398 455.329Z" fill="#28E1BF"/><path d="M217.947 485.726C218.459 487.302 217.597 488.994 216.021 489.506L193.196 496.922C191.62 497.434 189.928 496.572 189.416 494.996L188.18 491.192C187.668 489.616 188.53 487.924 190.106 487.412L212.931 479.996C214.507 479.484 216.199 480.346 216.711 481.922Z" fill="#28E1BF"/><path d="M220.381 516.829C220.208 518.477 218.732 519.672 217.084 519.499L193.215 516.99C191.568 516.817 190.372 515.341 190.545 513.693L190.964 509.715C191.137 508.067 192.613 506.872 194.261 507.045L218.129 509.553C219.777 509.727 220.972 511.203 220.799 512.851Z" fill="#28E1BF"/><path d="M209.951 546.232C209.123 547.667 207.288 548.158 205.853 547.33L185.069 535.33C183.634 534.502 183.142 532.667 183.971 531.232L185.971 527.768C186.799 526.333 188.634 525.841 190.069 526.67L210.853 538.67C212.288 539.498 212.78 541.333 211.951 542.768Z" fill="#28E1BF"/><path d="M188.466 568.852C187.125 569.826 185.249 569.529 184.275 568.188L170.168 548.772C169.195 547.431 169.492 545.555 170.832 544.581L174.068 542.23C175.409 541.256 177.285 541.554 178.259 542.894L192.365 562.31C193.339 563.651 193.042 565.527 191.702 566.501Z" fill="#28E1BF"/><path d="M159.637 580.777C158.016 581.121 156.423 580.087 156.079 578.466L151.089 554.991C150.745 553.37 151.779 551.777 153.4 551.432L157.312 550.601C158.933 550.256 160.526 551.291 160.871 552.912L165.86 576.387C166.205 578.008 165.17 579.601 163.55 579.945Z" fill="#28E1BF"/><path d="M128.45 579.945C126.83 579.601 125.795 578.008 126.14 576.387L131.129 552.912C131.474 551.291 133.067 550.256 134.688 550.601L138.6 551.432C140.221 551.777 141.255 553.37 140.911 554.991L135.921 578.466C135.577 580.087 133.984 581.121 132.363 580.777Z" fill="#28E1BF"/><path d="M100.298 566.5C98.9577 565.527 98.6605 563.651 99.6344 562.31L113.741 542.894C114.715 541.553 116.591 541.256 117.932 542.23L121.168 544.581C122.508 545.555 122.805 547.431 121.831 548.772L107.725 568.188C106.751 569.528 104.875 569.826 103.534 568.852Z" fill="#28E1BF"/><path d="M80.048 542.767C79.2196 541.333 79.7112 539.498 81.1461 538.669L101.931 526.669C103.366 525.841 105.2 526.333 106.029 527.767L108.029 531.232C108.857 532.666 108.366 534.501 106.931 535.33L86.1461 547.33C84.7112 548.158 82.8764 547.666 82.048 546.232Z" fill="#28E1BF"/><path d="M71.2019 512.852C71.0287 511.204 72.2241 509.728 73.8718 509.554L97.7404 507.046C99.3881 506.873 100.864 508.068 101.038 509.716L101.456 513.694C101.629 515.342 100.433 516.818 98.7856 516.991L74.9171 519.5C73.2693 519.673 71.7932 518.477 71.62 516.83Z" fill="#28E1BF"/><path d="M75.2888 481.922C75.8008 480.346 77.4932 479.483 79.069 479.995L101.894 487.412C103.47 487.924 104.332 489.616 103.82 491.192L102.584 494.996C102.072 496.572 100.38 497.434 98.8042 496.922L75.9788 489.506C74.403 488.994 73.5407 487.302 74.0527 485.726Z" fill="#28E1BF"/><path d="M91.6024 455.329C92.711 454.098 94.6079 453.998 95.8392 455.107L113.675 471.166C114.906 472.275 115.005 474.172 113.897 475.403L111.22 478.375C110.112 479.607 108.215 479.706 106.983 478.597L89.1479 462.538C87.9166 461.43 87.8172 459.533 88.9259 458.301Z" fill="#28E1BF"/><path d="M117.322 437.671C118.835 436.997 120.609 437.677 121.283 439.191L131.044 461.116C131.718 462.63 131.038 464.403 129.524 465.077L125.87 466.704C124.356 467.378 122.583 466.697 121.909 465.184L112.147 443.258C111.473 441.745 112.154 439.972 113.668 439.298Z" fill="#28E1BF"/></g></svg>