<svg width="30" height="30" xmlns="http://www.w3.org/2000/svg" xmlns:xlink="http://www.w3.org/1999/xlink" xml:space="preserve" overflow="hidden"><g transform="translate(-428 -610)"><path d="M431 617C430.639 616.995 430.304 617.184 430.122 617.496 429.94 617.807 429.94 618.193 430.122 618.504 430.304 618.816 430.639 619.005 431 619L455 619C455.361 619.005 455.696 618.816 455.878 618.504 456.06 618.193 456.06 617.807 455.878 617.496 455.696 617.184 455.361 616.995 455 617ZM431 624C430.639 623.995 430.304 624.184 430.122 624.496 429.94 624.807 429.94 625.193 430.122 625.504 430.304 625.816 430.639 626.005 431 626L455 626C455.361 626.005 455.696 625.816 455.878 625.504 456.06 625.193 456.06 624.807 455.878 624.496 455.696 624.184 455.361 623.995 455 624ZM431 631C430.639 630.995 430.304 631.184 430.122 631.496 429.94 631.807 429.94 632.193 430.122 632.504 430.304 632.816 430.639 633.005 431 633L455 633C455.361 633.005 455.696 632.816 455.878 632.504 456.06 632.193 456.06 631.807 455.878 631.496 455.696 631.184 455.361 630.995 455 631Z" fill="#28E1BF"/></g></svg>